DBRep_DrawableShape

CASCADE Topology V3, (c) Open Cascade
Locations 0
Curve2ds 36
1 0 1.5 1 0 
2 0 0 1 0 -0 1 13.5
1 6.2831853071795862 -0 0 1 
1 0 -0 0 1 
1 0 0 1 0 
2 0 0 1 0 -0 1 13.5
2 -4.7625000000000046 -8.2488919710467759 1 0 -0 1 1.6499999999999999
1 0 2.5 1 0 
2 2.7175999735764629 -10.142221176035218 1 0 -0 1 2.25
1 0 2.5 1 0 
2 -2.7175999735764691 10.142221176035218 1 0 -0 1 2.25
1 0 2.5 1 0 
2 0 0 1 0 -0 1 3
1 0 2.5 1 0 
2 4.7625000000000011 8.2488919710467776 1 0 -0 1 1.6499999999999999
1 0 2.5 1 0 
2 -4.7625000000000046 -8.2488919710467759 1 0 -0 1 1.6499999999999999
1 0 1 1 0 
2 2.7175999735764629 -10.142221176035218 1 0 -0 1 2.25
1 0 1 1 0 
2 -2.7175999735764691 10.142221176035218 1 0 -0 1 2.25
1 0 1 1 0 
2 0 0 1 0 -0 1 3
1 0 1 1 0 
2 4.7625000000000011 8.2488919710467776 1 0 -0 1 1.6499999999999999
1 0 1 1 0 
1 6.2831853071795862 -0 0 1 
1 0 -0 0 1 
1 6.2831853071795862 -0 0 1 
1 0 -0 0 1 
1 6.2831853071795862 -0 0 1 
1 0 -0 0 1 
1 6.2831853071795862 -0 0 1 
1 0 -0 0 1 
1 6.2831853071795862 -0 0 1 
1 0 -0 0 1 
Curves 18
2 0 0 -3.5 0 0 1 1 0 -0 -0 1 0 13.5
1 13.5 -3.3065463576978537e-15 -5 0 0 1 
2 0 0 -5 0 0 1 1 0 -0 -0 1 0 13.5
2 -4.7625000000000046 -8.2488919710467759 -3.5 0 0 1 1 0 -0 -0 1 0 1.6499999999999999
2 2.7175999735764629 -10.142221176035218 -3.5 0 0 1 1 0 -0 -0 1 0 2.25
2 -2.7175999735764691 10.142221176035218 -3.5 0 0 1 1 0 -0 -0 1 0 2.25
2 0 0 -3.5 0 0 1 1 0 -0 -0 1 0 3
2 4.7625000000000011 8.2488919710467776 -3.5 0 0 1 1 0 -0 -0 1 0 1.6499999999999999
2 -4.7625000000000046 -8.2488919710467759 -5 0 0 1 1 0 -0 -0 1 0 1.6499999999999999
2 2.7175999735764629 -10.142221176035218 -5 0 0 1 1 0 -0 -0 1 0 2.25
2 -2.7175999735764691 10.142221176035218 -5 0 0 1 1 0 -0 -0 1 0 2.25
2 0 0 -5 0 0 1 1 0 -0 -0 1 0 3
2 4.7625000000000011 8.2488919710467776 -5 0 0 1 1 0 -0 -0 1 0 1.6499999999999999
1 -3.1125000000000047 -8.2488919710467759 -6 0 0 1 
1 4.9675999735764629 -10.142221176035218 -6 0 0 1 
1 -0.4675999735764691 10.142221176035218 -6 0 0 1 
1 3 -7.3478807948841188e-16 -6 0 0 1 
1 6.4125000000000014 8.2488919710467776 -6 0 0 1 
Polygon3D 0
PolygonOnTriangulations 0
Surfaces 8
2 0 0 -5 0 0 1 1 0 -0 -0 1 0 13.5
1 0 0 -3.5 0 0 1 1 0 -0 -0 1 0 
1 0 0 -5 0 0 1 1 0 -0 -0 1 0 
2 -4.7625000000000046 -8.2488919710467759 -6 0 0 1 1 0 -0 -0 1 0 1.6499999999999999
2 2.7175999735764629 -10.142221176035218 -6 0 0 1 1 0 -0 -0 1 0 2.25
2 -2.7175999735764691 10.142221176035218 -6 0 0 1 1 0 -0 -0 1 0 2.25
2 0 0 -6 0 0 1 1 0 -0 -0 1 0 3
2 4.7625000000000011 8.2488919710467776 -6 0 0 1 1 0 -0 -0 1 0 1.6499999999999999
Triangulations 0

TShapes 59
Ve
1e-07
13.5 -3.30654635769785e-15 -3.5
0 0

0101101
*
Ed
 1e-07 1 1 0
1  1 0 0 6.28318530717959
2  1 1 0 0 6.28318530717959
2  2 2 0 0 6.28318530717959
0

0101000
+59 0 -59 0 *
Ve
1e-07
13.5 -3.30654635769785e-15 -5
0 0

0101101
*
Ed
 1e-07 1 1 0
1  2 0 0 1.5
3  3 4CN 1 0 0 1.5
0

0101000
-59 0 +57 0 *
Ed
 1e-07 1 1 0
1  3 0 0 6.28318530717959
2  5 1 0 0 6.28318530717959
2  6 3 0 0 6.28318530717959
0

0101000
+57 0 -57 0 *
Wi

0101100
-58 0 +56 0 +55 0 -56 0 *
Fa
0  1e-07 1 0

0101000
+54 0 *
Wi

0101100
+58 0 *
Ve
1e-07
-3.1125 -8.24889197104678 -3.5
0 0

0101101
*
Ed
 1e-07 1 1 0
1  4 0 0 6.28318530717959
2  7 2 0 0 6.28318530717959
2  8 4 0 0 6.28318530717959
0

0101100
+51 0 -51 0 *
Wi

0101100
-50 0 *
Ve
1e-07
4.96759997357646 -10.1422211760352 -3.5
0 0

0101101
*
Ed
 1e-07 1 1 0
1  5 0 0 6.28318530717959
2  9 2 0 0 6.28318530717959
2  10 5 0 0 6.28318530717959
0

0101100
+48 0 -48 0 *
Wi

0101100
-47 0 *
Ve
1e-07
-0.467599973576469 10.1422211760352 -3.5
0 0

0101101
*
Ed
 1e-07 1 1 0
1  6 0 0 6.28318530717959
2  11 2 0 0 6.28318530717959
2  12 6 0 0 6.28318530717959
0

0101100
+45 0 -45 0 *
Wi

0101100
-44 0 *
Ve
1.00000000734788e-07
3 -7.34788079488412e-16 -3.5
0 0

0101101
*
Ed
 1e-07 1 1 0
1  7 0 0 6.28318530717959
2  13 2 0 0 6.28318530717959
2  14 7 0 0 6.28318530717959
0

0101100
+42 0 -42 0 *
Wi

0101100
-41 0 *
Ve
1e-07
6.4125 8.24889197104678 -3.5
0 0

0101101
*
Ed
 1e-07 1 1 0
1  8 0 0 6.28318530717959
2  15 2 0 0 6.28318530717959
2  16 8 0 0 6.28318530717959
0

0101100
+39 0 -39 0 *
Wi

0101100
-38 0 *
Fa
0  1e-07 2 0

0101000
+52 0 +49 0 +46 0 +43 0 +40 0 +37 0 *
Wi

0101100
+55 0 *
Ve
1e-07
-3.1125 -8.24889197104678 -5
0 0

0101101
*
Ed
 1e-07 1 1 0
1  9 0 0 6.28318530717959
2  17 3 0 0 6.28318530717959
2  18 4 0 0 6.28318530717959
0

0101100
+34 0 -34 0 *
Wi

0101100
-33 0 *
Ve
1e-07
4.96759997357646 -10.1422211760352 -5
0 0

0101101
*
Ed
 1e-07 1 1 0
1  10 0 0 6.28318530717959
2  19 3 0 0 6.28318530717959
2  20 5 0 0 6.28318530717959
0

0101100
+31 0 -31 0 *
Wi

0101100
-30 0 *
Ve
1e-07
-0.467599973576469 10.1422211760352 -5
0 0

0101101
*
Ed
 1e-07 1 1 0
1  11 0 0 6.28318530717959
2  21 3 0 0 6.28318530717959
2  22 6 0 0 6.28318530717959
0

0101100
+28 0 -28 0 *
Wi

0101100
-27 0 *
Ve
1.00000000734788e-07
3 -7.34788079488412e-16 -5
0 0

0101101
*
Ed
 1e-07 1 1 0
1  12 0 0 6.28318530717959
2  23 3 0 0 6.28318530717959
2  24 7 0 0 6.28318530717959
0

0101100
+25 0 -25 0 *
Wi

0101100
-24 0 *
Ve
1e-07
6.4125 8.24889197104678 -5
0 0

0101101
*
Ed
 1e-07 1 1 0
1  13 0 0 6.28318530717959
2  25 3 0 0 6.28318530717959
2  26 8 0 0 6.28318530717959
0

0101100
+22 0 -22 0 *
Wi

0101100
-21 0 *
Fa
0  1e-07 3 0

0101000
+35 0 +32 0 +29 0 +26 0 +23 0 +20 0 *
Ed
 1e-07 1 1 0
1  14 0 1 2.5
3  27 28CN 4 0 1 2.5
0

0101000
+34 0 -51 0 *
Wi

0101100
-50 0 +18 0 +33 0 -18 0 *
Fa
0  1e-07 4 0

0101000
+17 0 *
Ed
 1e-07 1 1 0
1  15 0 1 2.5
3  29 30CN 5 0 1 2.5
0

0101000
+31 0 -48 0 *
Wi

0101100
-47 0 +15 0 +30 0 -15 0 *
Fa
0  1e-07 5 0

0101000
+14 0 *
Ed
 1e-07 1 1 0
1  16 0 1 2.5
3  31 32CN 6 0 1 2.5
0

0101000
+28 0 -45 0 *
Wi

0101100
-44 0 +12 0 +27 0 -12 0 *
Fa
0  1e-07 6 0

0101000
+11 0 *
Ed
 1e-07 1 1 0
1  17 0 1 2.5
3  33 34CN 7 0 1 2.5
0

0101000
+25 0 -42 0 *
Wi

0101100
-41 0 +9 0 +24 0 -9 0 *
Fa
0  1e-07 7 0

0101000
+8 0 *
Ed
 1e-07 1 1 0
1  18 0 1 2.5
3  35 36CN 8 0 1 2.5
0

0101000
+22 0 -39 0 *
Wi

0101100
-38 0 +6 0 +21 0 -6 0 *
Fa
0  1e-07 8 0

0101000
+5 0 *
Sh

0101100
+53 0 +36 0 -19 0 -16 0 -13 0 -10 0 -7 0 -4 0 *
So

0100000
+3 0 *
Co

1100000
+2 0 *

+1 0 