DBRep_DrawableShape

CASCADE Topology V3, (c) Open Cascade
Locations 0
Curve2ds 16
1 0 3 1 0 
1 6.2831853071795862 -0 0 1 
1 0 -0 0 1 
1 0 0 1 0 
1 0 0 1 0 
1 0 25 1 0 
1 6.2831853071795862 -0 0 1 
1 0 -0 0 1 
1 0 3 1 0 
1 6.2831853071795862 -0 0 1 
1 0 -0 0 1 
1 0 0 1 0 
1 0 0 1 0 
1 0 25 1 0 
1 6.2831853071795862 -0 0 1 
1 0 -0 0 1 
Curves 12
2 4.7625000000000011 8.2488919710467776 -5 0 0 1 1 0 -0 -0 1 0 2.75
1 7.5125000000000011 8.2488919710467776 -8 0 0 1 
2 4.7625000000000011 8.2488919710467776 -8 0 0 1 1 0 -0 -0 1 0 2.75
2 4.7625000000000011 8.2488919710467776 -5 0 0 1 1 0 -0 -0 1 0 1.25
2 4.7625000000000011 8.2488919710467776 20 0 0 1 1 0 -0 -0 1 0 1.25
1 6.0125000000000011 8.2488919710467776 -5 0 0 1 
2 -4.7625000000000046 -8.2488919710467759 -5 0 0 1 1 0 -0 -0 1 0 2.75
1 -2.0125000000000046 -8.2488919710467759 -8 0 0 1 
2 -4.7625000000000046 -8.2488919710467759 -8 0 0 1 1 0 -0 -0 1 0 2.75
2 -4.7625000000000046 -8.2488919710467759 -5 0 0 1 1 0 -0 -0 1 0 1.25
2 -4.7625000000000046 -8.2488919710467759 20 0 0 1 1 0 -0 -0 1 0 1.25
1 -3.5125000000000046 -8.2488919710467759 -5 0 0 1 
Polygon3D 0
PolygonOnTriangulations 0
Surfaces 10
2 4.7625000000000011 8.2488919710467776 -8 0 0 1 1 0 -0 -0 1 0 2.75
1 4.7625000000000011 8.2488919710467776 -5 0 0 1 1 0 -0 -0 1 0 
2 4.7625000000000011 8.2488919710467776 -5 0 0 1 1 0 -0 -0 1 0 1.25
1 4.7625000000000011 8.2488919710467776 -8 0 0 1 1 0 -0 -0 1 0 
1 4.7625000000000011 8.2488919710467776 20 0 0 1 1 0 -0 -0 1 0 
2 -4.7625000000000046 -8.2488919710467759 -8 0 0 1 1 0 -0 -0 1 0 2.75
1 -4.7625000000000046 -8.2488919710467759 -5 0 0 1 1 0 -0 -0 1 0 
2 -4.7625000000000046 -8.2488919710467759 -5 0 0 1 1 0 -0 -0 1 0 1.25
1 -4.7625000000000046 -8.2488919710467759 -8 0 0 1 1 0 -0 -0 1 0 
1 -4.7625000000000046 -8.2488919710467759 20 0 0 1 1 0 -0 -0 1 0 
Triangulations 0

TShapes 49
Ve
1e-07
7.5125 8.24889197104678 -5
0 0

0101101
*
Ed
 1e-07 1 1 0
1  1 0 0 6.28318530717959
2  1 1 0 0 6.28318530717959
0

0101000
+49 0 -49 0 *
Ve
1e-07
7.5125 8.24889197104678 -8
0 0

0101101
*
Ed
 1e-07 1 1 0
1  2 0 0 3
3  2 3CN 1 0 0 3
0

0101000
-49 0 +47 0 *
Ed
 1e-07 1 1 0
1  3 0 0 6.28318530717959
2  4 1 0 0 6.28318530717959
0

0101000
+47 0 -47 0 *
Wi

0101100
-48 0 +46 0 +45 0 -46 0 *
Fa
0  1e-07 1 0

0101000
+44 0 *
Wi

0101100
+48 0 *
Ve
1e-07
6.0125 8.24889197104678 -5
0 0

0101101
*
Ed
 1e-07 1 1 0
1  4 0 0 6.28318530717959
2  5 3 0 0 6.28318530717959
0

0101000
+41 0 -41 0 *
Wi

0101100
-40 0 *
Fa
0  1e-07 2 0

0101000
+42 0 +39 0 *
Wi

0101100
-45 0 *
Fa
0  1e-07 4 0

0101000
-37 0 *
Ve
1e-07
6.0125 8.24889197104678 20
0 0

0101101
*
Ed
 1e-07 1 1 0
1  5 0 0 6.28318530717959
2  6 3 0 0 6.28318530717959
0

0101000
+35 0 -35 0 *
Ed
 1e-07 1 1 0
1  6 0 0 25
3  7 8CN 3 0 0 25
0

0101000
-35 0 +41 0 *
Wi

0101100
-34 0 +33 0 +40 0 -33 0 *
Fa
0  1e-07 3 0

0101000
+32 0 *
Wi

0101100
+34 0 *
Fa
0  1e-07 5 0

0101000
+30 0 *
Sh

0101100
+43 0 +38 0 -36 0 +31 0 +29 0 *
So

0100000
+28 0 *
Co

0100000
+27 0 *
Ve
1e-07
-2.0125 -8.24889197104678 -5
0 0

0101101
*
Ed
 1e-07 1 1 0
1  7 0 0 6.28318530717959
2  9 6 0 0 6.28318530717959
0

0101000
+25 0 -25 0 *
Ve
1e-07
-2.0125 -8.24889197104678 -8
0 0

0101101
*
Ed
 1e-07 1 1 0
1  8 0 0 3
3  10 11CN 6 0 0 3
0

0101000
-25 0 +23 0 *
Ed
 1e-07 1 1 0
1  9 0 0 6.28318530717959
2  12 6 0 0 6.28318530717959
0

0101000
+23 0 -23 0 *
Wi

0101100
-24 0 +22 0 +21 0 -22 0 *
Fa
0  1e-07 6 0

0101000
+20 0 *
Wi

0101100
+24 0 *
Ve
1e-07
-3.5125 -8.24889197104678 -5
0 0

0101101
*
Ed
 1e-07 1 1 0
1  10 0 0 6.28318530717959
2  13 8 0 0 6.28318530717959
0

0101000
+17 0 -17 0 *
Wi

0101100
-16 0 *
Fa
0  1e-07 7 0

0101000
+18 0 +15 0 *
Wi

0101100
-21 0 *
Fa
0  1e-07 9 0

0101000
-13 0 *
Ve
1e-07
-3.5125 -8.24889197104678 20
0 0

0101101
*
Ed
 1e-07 1 1 0
1  11 0 0 6.28318530717959
2  14 8 0 0 6.28318530717959
0

0101000
+11 0 -11 0 *
Ed
 1e-07 1 1 0
1  12 0 0 25
3  15 16CN 8 0 0 25
0

0101000
-11 0 +17 0 *
Wi

0101100
-10 0 +9 0 +16 0 -9 0 *
Fa
0  1e-07 8 0

0101000
+8 0 *
Wi

0101100
+10 0 *
Fa
0  1e-07 10 0

0101000
+6 0 *
Sh

0101100
+19 0 +14 0 -12 0 +7 0 +5 0 *
So

0100000
+4 0 *
Co

0100000
+3 0 *
Co

1100000
+26 0 +2 0 *

+1 0 